{
  "accessors": [
    {
      "bufferView": 2,
      "componentType": 5126,
      "count": 7196,
      "max": [
        0.03373299911618233,
        -0.01981399953365326,
        0.046484000980854034
      ],
      "min": [
        -0.09031499922275543,
        -0.201431006193161,
        -0.045747000724077225
      ],
      "type": "VEC3"
    },
    {
      "bufferView": 2,
      "byteOffset": 86352,
      "componentType": 5126,
      "count": 7196,
      "max": [
        0.9998082518577576,
        0.9990713596343994,
        0.9997767806053162
      ],
      "min": [
        -0.9994356036186218,
        -0.9997977614402771,
        -0.9999303817749023
      ],
      "type": "VEC3"
    },
    {
      "bufferView": 1,
      "componentType": 5126,
      "count": 7196,
      "max": [
        0.9930260181427002,
        18.160051345825195
      ],
      "min": [
        -3.312725067138672,
        0.0037579999770969152
      ],
      "type": "VEC2"
    },
    {
      "bufferView": 0,
      "componentType": 5125,
      "count": 26778,
      "type": "SCALAR"
    }
  ],
  "asset": {
    "extras": {
      "author": "F53 (https://sketchfab.com/F53)",
      "license": "CC-BY-4.0 (http://creativecommons.org/licenses/by/4.0/)",
      "source": "https://sketchfab.com/3d-models/valve-index-controller-left-24cc19b6c68d4cdba24e8424a1321658",
      "title": "Valve Index Controller Left"
    },
    "generator": "Sketchfab-12.65.0",
    "version": "2.0"
  },
  "bufferViews": [
    {
      "buffer": 0,
      "byteLength": 107112,
      "name": "floatBufferViews",
      "target": 34963
    },
    {
      "buffer": 0,
      "byteLength": 57568,
      "byteOffset": 107112,
      "byteStride": 8,
      "name": "floatBufferViews",
      "target": 34962
    },
    {
      "buffer": 0,
      "byteLength": 172704,
      "byteOffset": 164680,
      "byteStride": 12,
      "name": "floatBufferViews",
      "target": 34962
    }
  ],
  "buffers": [
    {
      "byteLength": 337384,
      "uri": "scene.bin"
    }
  ],
  "images": [
    {
      "uri": "textures/knuckles_left_diffuse.png"
    }
  ],
  "materials": [
    {
      "doubleSided": true,
      "emissiveFactor": [
        1.0,
        1.0,
        1.0
      ],
      "name": "knuckles_left",
      "pbrMetallicRoughness": {
        "baseColorTexture": {
          "index": 0
        }
      }
    }
  ],
  "meshes": [
    {
      "name": "Object_0",
      "primitives": [
        {
          "attributes": {
            "NORMAL": 1,
            "POSITION": 0,
            "TEXCOORD_0": 2
          },
          "indices": 3,
          "material": 0,
          "mode": 4
        }
      ]
    }
  ],
  "nodes": [
    {
      "children": [
        1
      ],
      "matrix": [
        1.0,
        0.0,
        0.0,
        0.0,
        0.0,
        2.220446049250313e-16,
        -1.0,
        0.0,
        0.0,
        1.0,
        2.220446049250313e-16,
        0.0,
        0.0,
        0.0,
        0.0,
        1.0
      ],
      "name": "Sketchfab_model"
    },
    {
      "children": [
        2
      ],
      "name": "valve_controller_knu_1_0_left.obj.cleaner.materialmerger.gles"
    },
    {
      "mesh": 0,
      "name": "Object_2"
    }
  ],
  "samplers": [
    {
      "magFilter": 9729,
      "minFilter": 9987,
      "wrapS": 10497,
      "wrapT": 10497
    }
  ],
  "scene": 0,
  "scenes": [
    {
      "name": "Sketchfab_Scene",
      "nodes": [
        0
      ]
    }
  ],
  "textures": [
    {
      "sampler": 0,
      "source": 0
    }
  ]
}
